<?xml version="1.0" encoding="UTF-8"?>
<svg id="Layer_1" xmlns="http://www.w3.org/2000/svg" version="1.1" viewBox="0 0 140 60">
  <!-- Generator: Adobe Illustrator 30.0.0, SVG Export Plug-In . SVG Version: 2.1.1 Build 123)  -->
  <defs>
    <style>
      .st0 {
        fill: none;
        stroke-width: 2px;
      }

      .st0, .st1 {
        stroke: #000;
      }

      .st2 {
        fill: #fff;
        fill-rule: evenodd;
      }

      .st1 {
        fill: #00d0ff;
        stroke-miterlimit: 10;
        stroke-width: .25px;
      }
    </style>
  </defs>
  <path class="st1" d="M30,1h80c16.02,0,29,12.98,29,29h0c0,16.02-12.98,29-29,29H30C13.98,59,1,46.02,1,30h0C1,13.98,13.98,1,30,1Z"/>
  <path d="M43.01,36v-11.64h4.59c.88,0,1.63.17,2.26.51.62.33,1.09.8,1.42,1.39.33.59.49,1.27.49,2.05s-.17,1.45-.5,2.05c-.33.59-.82,1.05-1.45,1.38-.63.33-1.39.49-2.28.49h-2.93v-1.97h2.53c.47,0,.86-.08,1.17-.24.31-.17.54-.4.69-.69.16-.3.23-.63.23-1.02s-.08-.72-.23-1.01c-.15-.29-.38-.52-.69-.68-.31-.16-.7-.24-1.18-.24h-1.66v9.62h-2.46ZM55.75,24.36v11.64h-2.42v-11.64h2.42ZM60.17,36.16c-.56,0-1.05-.1-1.49-.29-.44-.2-.78-.49-1.03-.87-.25-.39-.38-.87-.38-1.44,0-.48.09-.89.27-1.22.18-.33.42-.59.73-.8.31-.2.66-.35,1.05-.45.39-.1.81-.17,1.24-.22.51-.05.92-.1,1.23-.15.31-.05.54-.12.68-.22.14-.09.21-.23.21-.42v-.03c0-.36-.11-.64-.34-.84-.22-.2-.54-.3-.95-.3-.44,0-.78.1-1.04.29-.26.19-.43.43-.51.72l-2.24-.18c.11-.53.34-.99.67-1.38.33-.39.76-.69,1.29-.9.53-.21,1.14-.32,1.84-.32.48,0,.95.06,1.39.17.45.11.84.29,1.19.53.35.24.62.55.82.92.2.37.3.82.3,1.34v5.89h-2.3v-1.21h-.07c-.14.27-.33.51-.56.72-.23.2-.52.37-.85.48-.33.11-.71.17-1.14.17ZM60.87,34.49c.36,0,.67-.07.94-.21.27-.14.49-.34.64-.58.16-.24.23-.52.23-.82v-.93c-.08.05-.18.09-.31.14-.13.04-.27.07-.44.11-.16.03-.33.06-.49.09-.16.02-.31.04-.44.06-.28.04-.53.11-.74.2-.21.09-.38.21-.49.37-.12.15-.18.34-.18.57,0,.33.12.58.36.76.24.17.55.26.92.26ZM68.15,39.27c-.31,0-.59-.02-.86-.07-.27-.05-.48-.1-.66-.18l.55-1.81c.28.09.54.13.77.14.23,0,.43-.05.6-.16.17-.11.31-.31.41-.58l.14-.37-3.13-8.98h2.55l1.81,6.41h.09l1.82-6.41h2.56l-3.39,9.67c-.16.47-.38.88-.66,1.23-.28.35-.63.62-1.05.81-.42.19-.94.29-1.53.29Z"/>
  <path class="st0" d="M30,1h80c16.02,0,29,12.98,29,29h0c0,16.02-12.98,29-29,29H30C13.98,59,1,46.02,1,30h0C1,13.98,13.98,1,30,1Z"/>
  <circle cx="106" cy="30" r="15"/>
  <path class="st2" d="M110,50c11.05,0,20-8.95,20-20s-8.95-20-20-20-20,8.95-20,20,8.95,20,20,20ZM108.89,22.92c-.77-.51-1.75-.56-2.57-.12-.81.44-1.32,1.28-1.32,2.2v10c0,.92.51,1.77,1.32,2.2.81.43,1.8.39,2.57-.12l7.5-5c.69-.46,1.11-1.24,1.11-2.08s-.42-1.62-1.11-2.08l-7.5-5Z"/>
</svg>